<svg width="18" height="10" viewBox="0 0 18 10" fill="none" xmlns="http://www.w3.org/2000/svg">
<path d="M0.304195 0.309191C0.401061 0.211449 0.51634 0.133863 0.643374 0.080914C0.770407 0.0279653 0.906677 0.000703206 1.04431 0.000703206C1.18194 0.000703206 1.31821 0.0279653 1.44525 0.080914C1.57228 0.133863 1.68756 0.211449 1.78443 0.309191L8.88887 7.45788L15.9933 0.309191C16.0901 0.211247 16.2053 0.133482 16.3324 0.0804063C16.4594 0.0273304 16.5957 0 16.7334 0C16.8711 0 17.0075 0.0273304 17.1345 0.0804063C17.2615 0.133482 17.3768 0.211247 17.4735 0.309191C17.6699 0.507068 17.7801 0.774498 17.7801 1.05322C17.7801 1.33194 17.6699 1.59937 17.4735 1.79725L9.62898 9.69081C9.53223 9.78875 9.41699 9.86652 9.28994 9.91959C9.16289 9.97267 9.02656 10 8.88887 10C8.75117 10 8.61485 9.97267 8.4878 9.91959C8.36075 9.86652 8.24551 9.78875 8.14875 9.69081L0.305862 1.79725C0.109905 1.59916 0 1.33181 0 1.05322C0 0.774631 0.109905 0.50728 0.305862 0.309191H0.304195Z" fill="#242220" fill-opacity="0.4"/>
</svg>
